<svg width="665" height="455" viewBox="0 0 665 455" fill="none" xmlns="http://www.w3.org/2000/svg">
<g clip-path="url(#clip0_14_2)">
<path d="M387.361 80.2112C399.825 80.2112 409.928 70.7063 409.928 58.9815C409.928 47.2567 399.825 37.7519 387.361 37.7519C374.898 37.7519 364.795 47.2567 364.795 58.9815C364.795 70.7063 374.898 80.2112 387.361 80.2112Z" fill="#F2F2F2"/>
<path d="M562.419 395.284C595.962 371.249 611.983 330.861 601.953 292.333C601.704 291.375 601.441 290.42 601.164 289.467C594.515 266.598 578.064 244.862 554.088 237.554C533.956 231.419 511.982 236.137 490.979 233.697C449.751 228.907 417.787 197.525 395.296 164.667C372.806 131.81 355.521 95.0302 325.636 67.885C276.375 23.1406 196.018 13.5071 134.942 42.6324C73.8654 71.7577 34.9605 136.374 36.6197 200.773C38.2789 265.172 78.9175 326.742 137.935 359.408C159.615 371.409 184.691 379.91 209.646 376.935C231.3 374.354 250.975 363.409 272.526 360.159C306.41 355.05 340.078 369.462 369.385 386.257C398.692 403.052 427.001 422.959 460.305 430.745C492.642 438.305 532.705 416.575 562.419 395.284Z" fill="#F2F2F2"/>
<path d="M514.226 43.9847C513.491 43.5235 512.747 43.0862 512.012 42.641C490.756 29.8525 467.974 19.4632 444.136 11.6879L438.608 83.4215H403.567V1.21647C401.361 0.787114 399.139 0.381616 396.916 -3.05176e-05V83.4215H355.274C332.35 83.4215 310.364 74.8544 294.155 59.605C277.945 44.3556 268.838 23.673 268.838 2.10707C266.607 2.56027 264.392 3.04521 262.178 3.56202V83.4215H228.261L222.996 15.0194C198.498 23.8579 175.241 35.481 153.742 49.6299C153.37 49.8684 152.998 50.1149 152.635 50.3534C150.767 51.5858 148.925 52.8421 147.091 54.1142V327.778H247.049L245.283 304.76L235.564 178.38H431.297L421.578 304.76L419.812 327.778H518.663V46.7516C517.193 45.8135 515.713 44.8911 514.226 43.9847ZM262.178 157.509H233.958L228.743 89.6868H262.178V157.509ZM396.916 157.509H349.518V156.165C349.518 155.519 349.383 154.879 349.12 154.283C348.857 153.686 348.472 153.144 347.986 152.687C347.5 152.231 346.923 151.869 346.288 151.623C345.654 151.376 344.973 151.25 344.287 151.251H323.681C322.995 151.251 322.316 151.378 321.682 151.625C321.048 151.872 320.473 152.233 319.988 152.69C319.502 153.146 319.118 153.688 318.855 154.284C318.593 154.88 318.458 155.519 318.458 156.165V157.509H268.838V89.6868H396.916V157.509ZM403.567 157.509V89.6868H438.127L432.912 157.509H403.567Z" fill="#3F3D56"/>
<path d="M0 345.303C7.34224 353.487 15.2837 361.179 23.7663 368.321L641.234 369.116C649.716 361.974 657.658 354.282 665 346.098L0 345.303Z" fill="#3F3D56"/>
<path d="M418.725 271.598V339.741C418.725 340.609 419.092 341.442 419.745 342.056C420.398 342.67 421.283 343.015 422.206 343.016H529.547C530.47 343.015 531.355 342.67 532.008 342.056C532.66 341.442 533.027 340.609 533.028 339.741V271.598C533.026 270.73 532.658 269.899 532.006 269.286C531.353 268.673 530.469 268.328 529.547 268.327H422.206C421.284 268.328 420.399 268.673 419.747 269.286C419.094 269.899 418.727 270.73 418.725 271.598Z" fill="#3F3D56"/>
<path d="M421.243 272.446V338.9C421.244 339.364 421.44 339.809 421.789 340.137C422.137 340.465 422.61 340.65 423.103 340.651H528.653C529.147 340.65 529.619 340.465 529.968 340.137C530.317 339.809 530.513 339.364 530.514 338.9V272.446C530.514 271.981 530.318 271.536 529.969 271.207C529.62 270.878 529.147 270.693 528.653 270.692H423.103C422.61 270.693 422.136 270.878 421.788 271.207C421.439 271.536 421.243 271.981 421.243 272.446Z" fill="#00FF66"/>
<path d="M416.48 353.031C416.676 353.263 416.926 353.45 417.211 353.578C417.495 353.706 417.807 353.771 418.122 353.77H533.059C533.374 353.77 533.684 353.703 533.967 353.576C534.251 353.449 534.501 353.263 534.699 353.034C534.897 352.804 535.038 352.536 535.112 352.248C535.186 351.961 535.191 351.662 535.127 351.372L533.342 343.4C533.268 343.074 533.109 342.772 532.879 342.519C532.649 342.267 532.356 342.073 532.025 341.954C531.786 341.866 531.532 341.821 531.275 341.821H419.899C419.643 341.821 419.388 341.866 419.149 341.954C418.819 342.073 418.525 342.267 418.295 342.519C418.065 342.772 417.906 343.074 417.832 343.4L416.048 351.372C415.984 351.661 415.99 351.96 416.065 352.247C416.14 352.534 416.281 352.802 416.48 353.031Z" fill="#2F2E41"/>
<path d="M527.331 345.255H530.046C530.274 345.255 530.459 345.081 530.459 344.867V343.645C530.459 343.431 530.274 343.257 530.046 343.257H527.331C527.103 343.257 526.919 343.431 526.919 343.645V344.867C526.919 345.081 527.103 345.255 527.331 345.255Z" fill="#3F3D56"/>
<path d="M520.251 345.255H522.966C523.194 345.255 523.379 345.081 523.379 344.867V343.645C523.379 343.431 523.194 343.257 522.966 343.257H520.251C520.023 343.257 519.839 343.431 519.839 343.645V344.867C519.839 345.081 520.023 345.255 520.251 345.255Z" fill="#3F3D56"/>
<path d="M513.171 345.255H515.886C516.114 345.255 516.299 345.081 516.299 344.867V343.645C516.299 343.431 516.114 343.257 515.886 343.257H513.171C512.943 343.257 512.759 343.431 512.759 343.645V344.867C512.759 345.081 512.943 345.255 513.171 345.255Z" fill="#3F3D56"/>
<path d="M506.091 345.255H508.806C509.034 345.255 509.219 345.081 509.219 344.867V343.645C509.219 343.431 509.034 343.257 508.806 343.257H506.091C505.863 343.257 505.679 343.431 505.679 343.645V344.867C505.679 345.081 505.863 345.255 506.091 345.255Z" fill="#3F3D56"/>
<path d="M499.011 345.255H501.726C501.954 345.255 502.139 345.081 502.139 344.867V343.645C502.139 343.431 501.954 343.257 501.726 343.257H499.011C498.783 343.257 498.599 343.431 498.599 343.645V344.867C498.599 345.081 498.783 345.255 499.011 345.255Z" fill="#3F3D56"/>
<path d="M491.931 345.255H494.646C494.874 345.255 495.059 345.081 495.059 344.867V343.645C495.059 343.431 494.874 343.257 494.646 343.257H491.931C491.703 343.257 491.519 343.431 491.519 343.645V344.867C491.519 345.081 491.703 345.255 491.931 345.255Z" fill="#3F3D56"/>
<path d="M484.851 345.255H487.566C487.794 345.255 487.979 345.081 487.979 344.867V343.645C487.979 343.431 487.794 343.257 487.566 343.257H484.851C484.623 343.257 484.439 343.431 484.439 343.645V344.867C484.439 345.081 484.623 345.255 484.851 345.255Z" fill="#3F3D56"/>
<path d="M477.771 345.255H480.486C480.714 345.255 480.899 345.081 480.899 344.867V343.645C480.899 343.431 480.714 343.257 480.486 343.257H477.771C477.543 343.257 477.359 343.431 477.359 343.645V344.867C477.359 345.081 477.543 345.255 477.771 345.255Z" fill="#3F3D56"/>
<path d="M470.691 345.255H473.406C473.634 345.255 473.819 345.081 473.819 344.867V343.645C473.819 343.431 473.634 343.257 473.406 343.257H470.691C470.463 343.257 470.279 343.431 470.279 343.645V344.867C470.279 345.081 470.463 345.255 470.691 345.255Z" fill="#3F3D56"/>
<path d="M463.611 345.255H466.326C466.554 345.255 466.739 345.081 466.739 344.867V343.645C466.739 343.431 466.554 343.257 466.326 343.257H463.611C463.383 343.257 463.199 343.431 463.199 343.645V344.867C463.199 345.081 463.383 345.255 463.611 345.255Z" fill="#3F3D56"/>
<path d="M456.531 345.255H459.246C459.474 345.255 459.659 345.081 459.659 344.867V343.645C459.659 343.431 459.474 343.257 459.246 343.257H456.531C456.303 343.257 456.119 343.431 456.119 343.645V344.867C456.119 345.081 456.303 345.255 456.531 345.255Z" fill="#3F3D56"/>
<path d="M449.451 345.255H452.166C452.394 345.255 452.579 345.081 452.579 344.867V343.645C452.579 343.431 452.394 343.257 452.166 343.257H449.451C449.223 343.257 449.039 343.431 449.039 343.645V344.867C449.039 345.081 449.223 345.255 449.451 345.255Z" fill="#3F3D56"/>
<path d="M442.371 345.255H445.086C445.314 345.255 445.499 345.081 445.499 344.867V343.645C445.499 343.431 445.314 343.257 445.086 343.257H442.371C442.143 343.257 441.959 343.431 441.959 343.645V344.867C441.959 345.081 442.143 345.255 442.371 345.255Z" fill="#3F3D56"/>
<path d="M435.291 345.255H438.006C438.234 345.255 438.419 345.081 438.419 344.867V343.645C438.419 343.431 438.234 343.257 438.006 343.257H435.291C435.063 343.257 434.879 343.431 434.879 343.645V344.867C434.879 345.081 435.063 345.255 435.291 345.255Z" fill="#3F3D56"/>
<path d="M428.211 345.255H430.926C431.154 345.255 431.339 345.081 431.339 344.867V343.645C431.339 343.431 431.154 343.257 430.926 343.257H428.211C427.983 343.257 427.799 343.431 427.799 343.645V344.867C427.799 345.081 427.983 345.255 428.211 345.255Z" fill="#3F3D56"/>
<path d="M421.131 345.255H423.846C424.074 345.255 424.258 345.081 424.258 344.867V343.645C424.258 343.431 424.074 343.257 423.846 343.257H421.131C420.903 343.257 420.718 343.431 420.718 343.645V344.867C420.718 345.081 420.903 345.255 421.131 345.255Z" fill="#3F3D56"/>
<path d="M527.415 348.585H530.13C530.358 348.585 530.542 348.411 530.542 348.197V346.975C530.542 346.761 530.358 346.587 530.13 346.587H527.415C527.187 346.587 527.002 346.761 527.002 346.975V348.197C527.002 348.411 527.187 348.585 527.415 348.585Z" fill="#3F3D56"/>
<path d="M520.335 348.585H523.05C523.278 348.585 523.462 348.411 523.462 348.197V346.975C523.462 346.761 523.278 346.587 523.05 346.587H520.335C520.107 346.587 519.922 346.761 519.922 346.975V348.197C519.922 348.411 520.107 348.585 520.335 348.585Z" fill="#3F3D56"/>
<path d="M513.255 348.585H515.97C516.198 348.585 516.382 348.411 516.382 348.197V346.975C516.382 346.761 516.198 346.587 515.97 346.587H513.255C513.027 346.587 512.842 346.761 512.842 346.975V348.197C512.842 348.411 513.027 348.585 513.255 348.585Z" fill="#3F3D56"/>
<path d="M506.175 348.585H508.89C509.118 348.585 509.302 348.411 509.302 348.197V346.975C509.302 346.761 509.118 346.587 508.89 346.587H506.175C505.947 346.587 505.762 346.761 505.762 346.975V348.197C505.762 348.411 505.947 348.585 506.175 348.585Z" fill="#3F3D56"/>
<path d="M499.095 348.585H501.81C502.037 348.585 502.222 348.411 502.222 348.197V346.975C502.222 346.761 502.037 346.587 501.81 346.587H499.095C498.867 346.587 498.682 346.761 498.682 346.975V348.197C498.682 348.411 498.867 348.585 499.095 348.585Z" fill="#3F3D56"/>
<path d="M492.015 348.585H494.73C494.958 348.585 495.142 348.411 495.142 348.197V346.975C495.142 346.761 494.958 346.587 494.73 346.587H492.015C491.787 346.587 491.602 346.761 491.602 346.975V348.197C491.602 348.411 491.787 348.585 492.015 348.585Z" fill="#3F3D56"/>
<path d="M484.935 348.585H487.65C487.878 348.585 488.062 348.411 488.062 348.197V346.975C488.062 346.761 487.878 346.587 487.65 346.587H484.935C484.707 346.587 484.522 346.761 484.522 346.975V348.197C484.522 348.411 484.707 348.585 484.935 348.585Z" fill="#3F3D56"/>
<path d="M477.855 348.585H480.57C480.797 348.585 480.982 348.411 480.982 348.197V346.975C480.982 346.761 480.797 346.587 480.57 346.587H477.855C477.627 346.587 477.442 346.761 477.442 346.975V348.197C477.442 348.411 477.627 348.585 477.855 348.585Z" fill="#3F3D56"/>
<path d="M470.775 348.585H473.49C473.718 348.585 473.902 348.411 473.902 348.197V346.975C473.902 346.761 473.718 346.587 473.49 346.587H470.775C470.547 346.587 470.362 346.761 470.362 346.975V348.197C470.362 348.411 470.547 348.585 470.775 348.585Z" fill="#3F3D56"/>
<path d="M463.695 348.585H466.41C466.638 348.585 466.822 348.411 466.822 348.197V346.975C466.822 346.761 466.638 346.587 466.41 346.587H463.695C463.467 346.587 463.282 346.761 463.282 346.975V348.197C463.282 348.411 463.467 348.585 463.695 348.585Z" fill="#3F3D56"/>
<path d="M456.615 348.585H459.33C459.557 348.585 459.742 348.411 459.742 348.197V346.975C459.742 346.761 459.557 346.587 459.33 346.587H456.615C456.387 346.587 456.202 346.761 456.202 346.975V348.197C456.202 348.411 456.387 348.585 456.615 348.585Z" fill="#3F3D56"/>
<path d="M449.535 348.585H452.25C452.477 348.585 452.662 348.411 452.662 348.197V346.975C452.662 346.761 452.477 346.587 452.25 346.587H449.535C449.307 346.587 449.122 346.761 449.122 346.975V348.197C449.122 348.411 449.307 348.585 449.535 348.585Z" fill="#3F3D56"/>
<path d="M442.455 348.585H445.17C445.397 348.585 445.582 348.411 445.582 348.197V346.975C445.582 346.761 445.397 346.587 445.17 346.587H442.455C442.227 346.587 442.042 346.761 442.042 346.975V348.197C442.042 348.411 442.227 348.585 442.455 348.585Z" fill="#3F3D56"/>
<path d="M435.375 348.585H438.09C438.317 348.585 438.502 348.411 438.502 348.197V346.975C438.502 346.761 438.317 346.587 438.09 346.587H435.375C435.147 346.587 434.962 346.761 434.962 346.975V348.197C434.962 348.411 435.147 348.585 435.375 348.585Z" fill="#3F3D56"/>
<path d="M428.295 348.585H431.01C431.237 348.585 431.422 348.411 431.422 348.197V346.975C431.422 346.761 431.237 346.587 431.01 346.587H428.295C428.067 346.587 427.882 346.761 427.882 346.975V348.197C427.882 348.411 428.067 348.585 428.295 348.585Z" fill="#3F3D56"/>
<path d="M421.215 348.585H423.93C424.157 348.585 424.342 348.411 424.342 348.197V346.975C424.342 346.761 424.157 346.587 423.93 346.587H421.215C420.987 346.587 420.802 346.761 420.802 346.975V348.197C420.802 348.411 420.987 348.585 421.215 348.585Z" fill="#3F3D56"/>
<path d="M468.651 352.582H496.146C496.374 352.582 496.558 352.408 496.558 352.193V350.972C496.558 350.757 496.374 350.583 496.146 350.583H468.651C468.423 350.583 468.238 350.757 468.238 350.972V352.193C468.238 352.408 468.423 352.582 468.651 352.582Z" fill="#3F3D56"/>
<path d="M439.521 285.23H437.117C436.389 285.23 435.798 285.786 435.798 286.472C435.798 287.157 436.389 287.713 437.117 287.713H439.521C440.25 287.713 440.84 287.157 440.84 286.472C440.84 285.786 440.25 285.23 439.521 285.23Z" fill="white"/>
<path d="M467.009 285.23H464.605C463.876 285.23 463.286 285.786 463.286 286.472C463.286 287.157 463.876 287.713 464.605 287.713H467.009C467.737 287.713 468.328 287.157 468.328 286.472C468.328 285.786 467.737 285.23 467.009 285.23Z" fill="white"/>
<path d="M474.797 285.23H472.393C471.665 285.23 471.074 285.786 471.074 286.472C471.074 287.157 471.665 287.713 472.393 287.713H474.797C475.525 287.713 476.116 287.157 476.116 286.472C476.116 285.786 475.525 285.23 474.797 285.23Z" fill="white"/>
<path d="M459.532 285.024H444.594C443.866 285.024 443.275 285.579 443.275 286.265C443.275 286.95 443.866 287.506 444.594 287.506H459.532C460.26 287.506 460.851 286.95 460.851 286.265C460.851 285.579 460.26 285.024 459.532 285.024Z" fill="white"/>
<path d="M496.182 285.024H481.244C480.516 285.024 479.925 285.579 479.925 286.265C479.925 286.95 480.516 287.506 481.244 287.506H496.182C496.911 287.506 497.501 286.95 497.501 286.265C497.501 285.579 496.911 285.024 496.182 285.024Z" fill="white"/>
<path d="M446.851 290.833H444.448C443.719 290.833 443.128 291.389 443.128 292.075C443.128 292.76 443.719 293.316 444.448 293.316H446.851C447.58 293.316 448.17 292.76 448.17 292.075C448.17 291.389 447.58 290.833 446.851 290.833Z" fill="white"/>
<path d="M474.339 290.833H471.935C471.206 290.833 470.616 291.389 470.616 292.075C470.616 292.76 471.206 293.316 471.935 293.316H474.339C475.067 293.316 475.658 292.76 475.658 292.075C475.658 291.389 475.067 290.833 474.339 290.833Z" fill="white"/>
<path d="M482.127 290.833H479.723C478.995 290.833 478.404 291.389 478.404 292.075C478.404 292.76 478.995 293.316 479.723 293.316H482.127C482.855 293.316 483.446 292.76 483.446 292.075C483.446 291.389 482.855 290.833 482.127 290.833Z" fill="white"/>
<path d="M466.862 290.626H451.924C451.196 290.626 450.605 291.182 450.605 291.868C450.605 292.553 451.196 293.109 451.924 293.109H466.862C467.59 293.109 468.181 292.553 468.181 291.868C468.181 291.182 467.59 290.626 466.862 290.626Z" fill="white"/>
<path d="M503.512 290.626H488.574C487.846 290.626 487.255 291.182 487.255 291.868C487.255 292.553 487.846 293.109 488.574 293.109H503.512C504.241 293.109 504.831 292.553 504.831 291.868C504.831 291.182 504.241 290.626 503.512 290.626Z" fill="white"/>
<path d="M454.181 296.436H451.778C451.049 296.436 450.458 296.992 450.458 297.677C450.458 298.363 451.049 298.918 451.778 298.918H454.181C454.91 298.918 455.5 298.363 455.5 297.677C455.5 296.992 454.91 296.436 454.181 296.436Z" fill="white"/>
<path d="M481.669 296.436H479.265C478.536 296.436 477.946 296.992 477.946 297.677C477.946 298.363 478.536 298.918 479.265 298.918H481.669C482.397 298.918 482.988 298.363 482.988 297.677C482.988 296.992 482.397 296.436 481.669 296.436Z" fill="white"/>
<path d="M489.457 296.436H487.053C486.325 296.436 485.734 296.992 485.734 297.677C485.734 298.363 486.325 298.918 487.053 298.918H489.457C490.185 298.918 490.776 298.363 490.776 297.677C490.776 296.992 490.185 296.436 489.457 296.436Z" fill="white"/>
<path d="M474.192 296.229H459.254C458.526 296.229 457.935 296.785 457.935 297.47C457.935 298.156 458.526 298.712 459.254 298.712H474.192C474.921 298.712 475.511 298.156 475.511 297.47C475.511 296.785 474.921 296.229 474.192 296.229Z" fill="white"/>
<path d="M510.842 296.229H495.904C495.176 296.229 494.585 296.785 494.585 297.47C494.585 298.156 495.176 298.712 495.904 298.712H510.842C511.571 298.712 512.161 298.156 512.161 297.47C512.161 296.785 511.571 296.229 510.842 296.229Z" fill="white"/>
<path d="M461.511 302.039H459.108C458.379 302.039 457.788 302.595 457.788 303.28C457.788 303.966 458.379 304.521 459.108 304.521H461.511C462.24 304.521 462.83 303.966 462.83 303.28C462.83 302.595 462.24 302.039 461.511 302.039Z" fill="white"/>
<path d="M488.999 302.039H486.595C485.867 302.039 485.276 302.595 485.276 303.28C485.276 303.966 485.867 304.521 486.595 304.521H488.999C489.727 304.521 490.318 303.966 490.318 303.28C490.318 302.595 489.727 302.039 488.999 302.039Z" fill="white"/>
<path d="M496.787 302.039H494.383C493.655 302.039 493.064 302.595 493.064 303.28C493.064 303.966 493.655 304.521 494.383 304.521H496.787C497.515 304.521 498.106 303.966 498.106 303.28C498.106 302.595 497.515 302.039 496.787 302.039Z" fill="white"/>
<path d="M481.522 301.832H466.584C465.856 301.832 465.265 302.388 465.265 303.073C465.265 303.759 465.856 304.314 466.584 304.314H481.522C482.251 304.314 482.841 303.759 482.841 303.073C482.841 302.388 482.251 301.832 481.522 301.832Z" fill="white"/>
<path d="M467.009 324.318H464.605C463.876 324.318 463.286 324.874 463.286 325.559C463.286 326.245 463.876 326.8 464.605 326.8H467.009C467.737 326.8 468.328 326.245 468.328 325.559C468.328 324.874 467.737 324.318 467.009 324.318Z" fill="white"/>
<path d="M474.797 324.318H472.393C471.665 324.318 471.074 324.874 471.074 325.559C471.074 326.245 471.665 326.8 472.393 326.8H474.797C475.525 326.8 476.116 326.245 476.116 325.559C476.116 324.874 475.525 324.318 474.797 324.318Z" fill="white"/>
<path d="M496.182 324.525H481.244C480.516 324.525 479.925 325.08 479.925 325.766C479.925 326.451 480.516 327.007 481.244 327.007H496.182C496.911 327.007 497.501 326.451 497.501 325.766C497.501 325.08 496.911 324.525 496.182 324.525Z" fill="white"/>
<path d="M439.521 324.318H437.117C436.389 324.318 435.798 324.874 435.798 325.559C435.798 326.245 436.389 326.8 437.117 326.8H439.521C440.25 326.8 440.84 326.245 440.84 325.559C440.84 324.874 440.25 324.318 439.521 324.318Z" fill="white"/>
<path d="M459.532 324.525H444.594C443.866 324.525 443.275 325.08 443.275 325.766C443.275 326.451 443.866 327.007 444.594 327.007H459.532C460.26 327.007 460.851 326.451 460.851 325.766C460.851 325.08 460.26 324.525 459.532 324.525Z" fill="white"/>
<path d="M446.851 318.715H444.448C443.719 318.715 443.128 319.271 443.128 319.956C443.128 320.642 443.719 321.197 444.448 321.197H446.851C447.58 321.197 448.17 320.642 448.17 319.956C448.17 319.271 447.58 318.715 446.851 318.715Z" fill="white"/>
<path d="M474.339 318.715H471.935C471.206 318.715 470.616 319.271 470.616 319.956C470.616 320.642 471.206 321.197 471.935 321.197H474.339C475.067 321.197 475.658 320.642 475.658 319.956C475.658 319.271 475.067 318.715 474.339 318.715Z" fill="white"/>
<path d="M482.127 318.715H479.723C478.995 318.715 478.404 319.271 478.404 319.956C478.404 320.642 478.995 321.197 479.723 321.197H482.127C482.855 321.197 483.446 320.642 483.446 319.956C483.446 319.271 482.855 318.715 482.127 318.715Z" fill="white"/>
<path d="M466.862 318.922H451.924C451.196 318.922 450.605 319.478 450.605 320.163C450.605 320.849 451.196 321.404 451.924 321.404H466.862C467.59 321.404 468.181 320.849 468.181 320.163C468.181 319.478 467.59 318.922 466.862 318.922Z" fill="white"/>
<path d="M454.181 313.112H451.778C451.049 313.112 450.458 313.668 450.458 314.353C450.458 315.039 451.049 315.595 451.778 315.595H454.181C454.91 315.595 455.5 315.039 455.5 314.353C455.5 313.668 454.91 313.112 454.181 313.112Z" fill="white"/>
<path d="M481.669 313.112H479.265C478.536 313.112 477.946 313.668 477.946 314.353C477.946 315.039 478.536 315.595 479.265 315.595H481.669C482.397 315.595 482.988 315.039 482.988 314.353C482.988 313.668 482.397 313.112 481.669 313.112Z" fill="white"/>
<path d="M489.457 313.112H487.053C486.325 313.112 485.734 313.668 485.734 314.353C485.734 315.039 486.325 315.595 487.053 315.595H489.457C490.185 315.595 490.776 315.039 490.776 314.353C490.776 313.668 490.185 313.112 489.457 313.112Z" fill="white"/>
<path d="M474.192 313.319H459.254C458.526 313.319 457.935 313.875 457.935 314.56C457.935 315.246 458.526 315.802 459.254 315.802H474.192C474.921 315.802 475.511 315.246 475.511 314.56C475.511 313.875 474.921 313.319 474.192 313.319Z" fill="white"/>
<path d="M461.511 307.509H459.108C458.379 307.509 457.788 308.065 457.788 308.751C457.788 309.436 458.379 309.992 459.108 309.992H461.511C462.24 309.992 462.83 309.436 462.83 308.751C462.83 308.065 462.24 307.509 461.511 307.509Z" fill="white"/>
<path d="M488.999 307.509H486.595C485.867 307.509 485.276 308.065 485.276 308.751C485.276 309.436 485.867 309.992 486.595 309.992H488.999C489.727 309.992 490.318 309.436 490.318 308.751C490.318 308.065 489.727 307.509 488.999 307.509Z" fill="white"/>
<path d="M496.787 307.509H494.383C493.655 307.509 493.064 308.065 493.064 308.751C493.064 309.436 493.655 309.992 494.383 309.992H496.787C497.515 309.992 498.106 309.436 498.106 308.751C498.106 308.065 497.515 307.509 496.787 307.509Z" fill="white"/>
<path d="M481.522 307.716H466.584C465.856 307.716 465.265 308.272 465.265 308.958C465.265 309.643 465.856 310.199 466.584 310.199H481.522C482.251 310.199 482.841 309.643 482.841 308.958C482.841 308.272 482.251 307.716 481.522 307.716Z" fill="white"/>
<path d="M426.743 389.98L415.46 373.202L450.875 346.644L465.492 331.409C467.392 329.43 469.81 327.954 472.505 327.129C475.2 326.304 478.078 326.16 480.852 326.709C483.625 327.259 486.197 328.483 488.31 330.261C490.422 332.038 492.002 334.306 492.891 336.838C494.209 340.59 493.926 344.676 492.101 348.235C490.277 351.794 487.054 354.547 483.113 355.913L459.998 363.924L426.743 389.98Z" fill="#FFB6B6"/>
<path d="M162.011 268.33V349.875H222.737V268.33C222.738 267.743 222.539 267.172 222.17 266.7C221.8 266.227 221.279 265.879 220.683 265.706C220.403 265.619 220.109 265.576 219.813 265.579H164.944C164.56 265.578 164.179 265.649 163.823 265.787C163.467 265.924 163.144 266.127 162.872 266.382C162.599 266.638 162.383 266.941 162.236 267.276C162.088 267.61 162.012 267.968 162.011 268.33ZM185.71 296.349C185.726 294.741 186.416 293.205 187.63 292.073C188.844 290.942 190.484 290.307 192.193 290.307C193.902 290.307 195.541 290.942 196.755 292.073C197.969 293.205 198.659 294.741 198.675 296.349V305.811C198.666 307.423 197.98 308.966 196.765 310.103C195.55 311.24 193.906 311.878 192.193 311.878C190.479 311.878 188.835 311.24 187.621 310.103C186.406 308.966 185.719 307.423 185.71 305.811V296.349Z" fill="#2F2E41"/>
<path d="M161.826 347.267V355.13C161.827 355.538 161.999 355.928 162.304 356.217C162.61 356.506 163.024 356.67 163.457 356.673H221.292C221.725 356.671 222.14 356.507 222.446 356.218C222.752 355.929 222.923 355.538 222.923 355.13V347.267H161.826Z" fill="#3F3D56"/>
<path d="M66.4814 145.472V294.361C66.483 296.259 67.2849 298.078 68.7111 299.419C70.1372 300.761 72.0711 301.516 74.088 301.517H308.624C310.641 301.516 312.575 300.761 314.001 299.419C315.427 298.078 316.229 296.259 316.23 294.361V145.472C316.226 143.576 315.422 141.759 313.997 140.419C312.571 139.08 310.639 138.326 308.624 138.324H74.088C72.0728 138.326 70.1408 139.08 68.7151 140.419C67.2894 141.759 66.4862 143.576 66.4814 145.472Z" fill="#3F3D56"/>
<path d="M71.9835 147.324V292.525C71.9853 293.538 72.4142 294.51 73.1762 295.227C73.9382 295.944 74.9711 296.347 76.0487 296.349H306.671C307.749 296.347 308.782 295.944 309.544 295.227C310.306 294.51 310.735 293.538 310.737 292.525V147.324C310.737 146.309 310.309 145.336 309.546 144.617C308.784 143.899 307.75 143.494 306.671 143.492H76.0487C74.9698 143.494 73.9359 143.899 73.1738 144.617C72.4116 145.336 71.9836 146.309 71.9835 147.324Z" fill="white"/>
<path d="M114.783 356.14C115.018 356.417 115.316 356.64 115.656 356.793C115.995 356.946 116.367 357.024 116.744 357.023H253.95C254.325 357.022 254.695 356.943 255.034 356.791C255.372 356.639 255.671 356.418 255.907 356.144C256.144 355.87 256.312 355.549 256.4 355.206C256.489 354.863 256.494 354.506 256.417 354.16L254.288 344.643C254.199 344.255 254.009 343.894 253.735 343.592C253.46 343.291 253.11 343.059 252.716 342.918C252.43 342.812 252.126 342.758 251.82 342.759H118.865C118.559 342.758 118.255 342.812 117.969 342.918C117.575 343.059 117.225 343.291 116.95 343.592C116.676 343.894 116.486 344.255 116.397 344.643L114.268 354.16C114.192 354.506 114.199 354.863 114.288 355.205C114.377 355.547 114.546 355.867 114.783 356.14Z" fill="#2F2E41"/>
<path d="M299.187 163.494H83.3943C83.17 163.489 82.9566 163.402 82.7997 163.251C82.6428 163.1 82.555 162.897 82.555 162.686C82.555 162.475 82.6428 162.273 82.7997 162.122C82.9566 161.971 83.17 161.884 83.3943 161.879H299.187C299.411 161.884 299.625 161.971 299.782 162.122C299.939 162.273 300.026 162.475 300.026 162.686C300.026 162.897 299.939 163.1 299.782 163.251C299.625 163.402 299.411 163.489 299.187 163.494Z" fill="#3F3D56"/>
<path d="M98.0836 157.757C100.861 157.757 103.113 155.592 103.113 152.921C103.113 150.249 100.861 148.084 98.0836 148.084C95.3061 148.084 93.0544 150.249 93.0544 152.921C93.0544 155.592 95.3061 157.757 98.0836 157.757Z" fill="#3F3D56"/>
<path d="M115.457 157.757C118.235 157.757 120.486 155.592 120.486 152.921C120.486 150.249 118.235 148.084 115.457 148.084C112.679 148.084 110.428 150.249 110.428 152.921C110.428 155.592 112.679 157.757 115.457 157.757Z" fill="#3F3D56"/>
<path d="M132.83 157.757C135.608 157.757 137.86 155.592 137.86 152.921C137.86 150.249 135.608 148.084 132.83 148.084C130.053 148.084 127.801 150.249 127.801 152.921C127.801 155.592 130.053 157.757 132.83 157.757Z" fill="#3F3D56"/>
<path d="M288.725 149.28H276.386C276.142 149.285 275.91 149.38 275.739 149.544C275.569 149.709 275.473 149.929 275.473 150.159C275.473 150.388 275.569 150.609 275.739 150.773C275.91 150.937 276.142 151.032 276.386 151.037H288.725C288.971 151.034 289.205 150.94 289.377 150.776C289.55 150.611 289.646 150.389 289.646 150.159C289.646 149.928 289.55 149.706 289.377 149.542C289.205 149.377 288.971 149.283 288.725 149.28Z" fill="#3F3D56"/>
<path d="M288.725 152.58H276.386C276.142 152.585 275.909 152.68 275.739 152.844C275.568 153.008 275.472 153.229 275.472 153.458C275.472 153.688 275.568 153.909 275.739 154.073C275.909 154.237 276.142 154.332 276.386 154.337H288.725C288.971 154.334 289.206 154.24 289.379 154.076C289.551 153.911 289.648 153.689 289.648 153.458C289.648 153.227 289.551 153.005 289.379 152.841C289.206 152.676 288.971 152.582 288.725 152.58Z" fill="#3F3D56"/>
<path d="M288.725 155.879H276.386C276.142 155.885 275.91 155.98 275.739 156.144C275.569 156.308 275.473 156.528 275.473 156.758C275.473 156.987 275.569 157.208 275.739 157.372C275.91 157.536 276.142 157.631 276.386 157.636H288.725C288.971 157.633 289.205 157.539 289.377 157.375C289.55 157.21 289.646 156.989 289.646 156.758C289.646 156.527 289.55 156.305 289.377 156.141C289.205 155.977 288.971 155.883 288.725 155.879Z" fill="#3F3D56"/>
<path d="M586.209 350.718C586.582 351.738 587.288 352.621 588.227 353.239C589.166 353.858 590.289 354.181 591.435 354.162L613.825 353.619C614.98 353.598 616.096 353.226 617.007 352.559C617.918 351.891 618.575 350.965 618.88 349.917L622.049 318.044C623.173 318.523 624.396 318.759 625.63 318.736C626.702 318.711 627.759 318.487 628.739 318.078C629.719 317.668 630.603 317.081 631.342 316.35C632.081 315.619 632.66 314.759 633.045 313.817C633.431 312.876 633.615 311.872 633.588 310.864C633.561 309.855 633.324 308.862 632.889 307.94C632.453 307.018 631.83 306.185 631.053 305.49C630.276 304.795 629.361 304.251 628.36 303.888C627.359 303.526 626.292 303.352 625.221 303.377C624.727 303.376 624.235 303.424 623.753 303.521C623.229 302.987 622.591 302.562 621.882 302.274C621.172 301.987 620.406 301.842 619.634 301.849L585.192 302.685C584.907 302.695 584.623 302.729 584.343 302.785C583.588 302.917 582.871 303.2 582.242 303.615C581.613 304.03 581.085 304.567 580.695 305.189C580.305 305.812 580.061 306.506 579.98 307.225C579.898 307.943 579.982 308.67 580.224 309.356L586.209 350.718ZM622.698 315.879L624.953 308.284C625.209 307.407 625.215 306.481 624.97 305.601C625.08 305.601 625.176 305.552 625.285 305.552C626.831 305.522 628.327 306.069 629.444 307.075C630.561 308.081 631.209 309.462 631.245 310.916C631.281 312.371 630.703 313.779 629.637 314.833C628.571 315.886 627.105 316.5 625.559 316.538C624.559 316.567 623.57 316.339 622.698 315.879Z" fill="#2F2E41"/>
<path d="M584.343 302.785C585.077 306.732 593.326 309.506 603.246 309.024C612.368 308.629 619.826 305.615 621.193 302.044C620.687 301.904 620.161 301.838 619.634 301.849L585.193 302.685C584.907 302.695 584.623 302.729 584.343 302.785Z" fill="#3F3D56"/>
<path d="M605.064 333.203C605.109 333.193 605.152 333.175 605.191 333.151L610.054 330.157C610.113 330.12 610.161 330.071 610.194 330.013C610.228 329.955 610.245 329.89 610.245 329.824C610.245 329.758 610.228 329.693 610.195 329.635C610.161 329.577 610.113 329.528 610.054 329.492L605 326.378C604.954 326.349 604.902 326.329 604.847 326.319C604.793 326.309 604.736 326.309 604.682 326.32C604.627 326.33 604.576 326.351 604.53 326.38C604.484 326.41 604.444 326.447 604.414 326.491C604.383 326.535 604.362 326.584 604.352 326.635C604.342 326.687 604.342 326.739 604.354 326.791C604.365 326.842 604.387 326.89 604.419 326.934C604.45 326.977 604.49 327.014 604.537 327.042L609.051 329.823L604.729 332.485C604.645 332.537 604.584 332.615 604.555 332.705C604.527 332.795 604.533 332.892 604.573 332.978C604.613 333.064 604.685 333.134 604.775 333.175C604.864 333.216 604.967 333.226 605.064 333.203Z" fill="#00FF66"/>
<path d="M597.384 333.537C597.466 333.517 597.539 333.475 597.595 333.416C597.651 333.357 597.688 333.284 597.699 333.205C597.71 333.127 597.697 333.047 597.66 332.976C597.622 332.905 597.564 332.846 597.491 332.806L593.009 330.389L597.341 327.362C597.385 327.331 597.423 327.292 597.451 327.247C597.48 327.202 597.498 327.153 597.507 327.101C597.515 327.049 597.512 326.997 597.498 326.946C597.485 326.896 597.461 326.848 597.428 326.806C597.395 326.764 597.353 326.729 597.305 326.702C597.258 326.675 597.205 326.658 597.15 326.65C597.095 326.642 597.04 326.645 596.986 326.658C596.932 326.67 596.881 326.693 596.837 326.724L591.987 330.113C591.93 330.153 591.885 330.205 591.856 330.264C591.826 330.324 591.813 330.39 591.817 330.456C591.821 330.522 591.842 330.586 591.879 330.642C591.916 330.698 591.967 330.744 592.028 330.777L597.07 333.496C597.165 333.547 597.278 333.562 597.384 333.537Z" fill="#00FF66"/>
<path d="M604.58 335.827C604.621 335.818 604.66 335.802 604.696 335.781C604.744 335.754 604.785 335.718 604.818 335.676C604.85 335.634 604.874 335.586 604.887 335.536C604.9 335.485 604.903 335.432 604.894 335.381C604.886 335.329 604.867 335.279 604.838 335.235L597.945 324.574C597.886 324.484 597.792 324.42 597.684 324.395C597.575 324.37 597.46 324.387 597.364 324.442C597.269 324.497 597.2 324.585 597.173 324.687C597.147 324.79 597.165 324.898 597.223 324.988L604.116 335.649C604.163 335.721 604.233 335.778 604.317 335.81C604.4 335.842 604.493 335.848 604.58 335.827Z" fill="#00FF66"/>
<path d="M217.074 207.383H179.725C178.202 207.383 176.966 208.545 176.966 209.978V213.411C176.966 214.844 178.202 216.006 179.725 216.006H217.074C218.598 216.006 219.833 214.844 219.833 213.411V209.978C219.833 208.545 218.598 207.383 217.074 207.383Z" fill="#00FF66"/>
<path d="M238.845 224.629H157.955C156.431 224.629 155.196 225.791 155.196 227.225V230.657C155.196 232.091 156.431 233.253 157.955 233.253H238.845C240.368 233.253 241.603 232.091 241.603 230.657V227.225C241.603 225.791 240.368 224.629 238.845 224.629Z" fill="#E6E6E6"/>
<path d="M238.845 241.876H157.955C156.431 241.876 155.196 243.038 155.196 244.472V247.904C155.196 249.338 156.431 250.5 157.955 250.5H238.845C240.368 250.5 241.603 249.338 241.603 247.904V244.472C241.603 243.038 240.368 241.876 238.845 241.876Z" fill="#E6E6E6"/>
<path d="M245.702 299.629L245.885 300.173L245.894 300.191L251.409 315.964L257.753 334.141L269.69 368.299L269.805 373.605V373.623L270.692 416.308L268.234 422.095L271.001 431.582C271.001 431.582 269.728 417.241 262.902 425.477C259.036 430.157 254.514 434.946 250.802 439.436C256.211 441.495 261.707 443.357 267.289 445.023C268.494 445.386 269.709 445.73 270.924 446.075C271.184 446.148 271.444 446.22 271.705 446.293C290.21 451.441 309.34 454.334 328.628 454.9C329.631 454.928 330.614 454.946 331.569 454.964C331.906 454.973 332.234 454.982 332.562 454.982C333.641 454.991 334.712 455 335.792 455C337.97 455 340.14 454.97 342.3 454.909C358.285 454.486 374.176 452.464 389.707 448.878C389.601 442.846 389.311 435.798 388.897 428.27C388.704 424.579 384.375 420.579 384.115 416.715C383.931 413.812 387.817 411.082 387.614 408.134C386.303 389.985 384.664 396.952 383.449 384.099C383.324 382.839 383.208 381.632 383.102 380.48C382.321 372.227 381.781 367.066 381.781 367.066L386.968 336.309L395.115 288.019L394.489 287.048L393.785 286.722L350.813 266.713L348.48 261.09C347.8 259.469 346.62 258.078 345.093 257.093C343.565 256.109 341.76 255.577 339.908 255.566L311.601 255.457C310.132 255.451 308.683 255.774 307.373 256.4C306.063 257.027 304.931 257.938 304.071 259.058L296.406 269.044L245.702 299.629Z" fill="#3F3D56"/>
<path d="M276.217 360.698L269.805 373.605L265.428 382.421L257.898 419.51L254.128 423.274L250.898 409.948L217.093 417.01C215.985 411.214 216.797 417.206 216.112 410.847C216.305 410.666 216.507 410.485 216.71 410.303C217.25 409.832 217.703 409.387 217.693 408.961C217.308 387.029 218.465 349.705 228.125 327.093C229.638 323.401 231.633 319.901 234.064 316.672C234.257 316.427 234.44 316.182 234.624 315.937C239.078 310.068 241.893 304.291 245.885 300.182V300.173C245.91 300.154 245.932 300.133 245.952 300.109C245.967 300.103 245.98 300.093 245.991 300.082L273.411 286.404L274.588 317.497L275.426 339.846L276.217 360.698Z" fill="#3F3D56"/>
<path d="M375.09 364.364L383.098 380.485L385.894 386.099L393.422 423.184L397.179 426.938L400.416 413.616L401.937 413.323L429.371 407.978L437.366 431.868C439.169 429.043 439.879 425.719 439.376 422.459C438.874 419.198 437.19 416.201 434.61 413.974C434.064 413.509 433.609 413.056 433.622 412.628C434.077 386.833 432.4 339.731 417.253 320.345C412.443 314.192 409.556 308.065 405.357 303.784C405.344 303.772 405.344 303.759 405.331 303.759L395.112 288.018L394.488 287.052L393.786 286.721L375.09 364.364Z" fill="#3F3D56"/>
<path d="M326.572 247.878C347.371 247.878 364.232 232.017 364.232 212.45C364.232 192.884 347.371 177.022 326.572 177.022C305.774 177.022 288.913 192.884 288.913 212.45C288.913 232.017 305.774 247.878 326.572 247.878Z" fill="#FFB6B6"/>
<path d="M377.474 187.704C377.182 187.41 376.83 187.175 376.439 187.013C376.049 186.85 375.627 186.763 375.2 186.758L375.766 185.279C375.951 184.813 376.001 184.309 375.911 183.819C375.821 183.329 375.594 182.871 375.253 182.491C374.913 182.11 374.471 181.822 373.973 181.655C373.475 181.489 372.939 181.449 372.42 181.542L370.357 181.915L370.552 180.619C370.626 180.137 370.566 179.644 370.377 179.19C370.187 178.736 369.876 178.336 369.473 178.03C369.069 177.723 368.588 177.521 368.076 177.442C367.565 177.364 367.04 177.412 366.554 177.582C366.112 177.746 365.637 177.814 365.163 177.783C364.689 177.751 364.229 177.62 363.816 177.399C363.401 177.185 363.041 176.889 362.761 176.53C362.48 176.172 362.287 175.76 362.193 175.324L361.475 172.064L361.398 171.889C357.899 166.403 351.172 162.412 342.94 160.949C335.612 159.637 328.099 160.305 320.855 160.933C317.982 161.187 314.736 161.473 312.032 163.032C309.733 164.368 307.789 167.039 308.186 169.735C301.045 167.675 293.387 171.786 289.592 176.97C285.096 183.14 284.361 190.868 284.242 196.911C283.921 211.207 287.057 222.903 293.539 231.681C294.013 232.317 294.131 233.644 295.069 234.09L294.875 233.795C295.923 234.288 296.988 235.084 296.59 235.934C295.449 238.383 303.031 243.798 308.372 245.587C318.117 248.855 331.074 248.576 340.185 247.4L340.506 245.372C343.793 244.951 346.109 244.148 346.76 242.891C347.909 241.969 348.89 241.142 349.743 240.379L349.752 240.371C349.769 240.355 349.803 240.331 349.82 240.315C353.936 236.602 354.891 234.487 355.322 231.267C355.736 228.111 355 224.906 354.248 222.02C370.087 224.326 348.011 206.15 362.768 202.636C362.937 202.587 363.109 202.547 363.283 202.516C363.714 202.421 364.145 202.326 364.559 202.214C366.556 201.705 368.467 200.937 370.239 199.932C374.363 197.571 375.724 194.438 377.854 190.908C378.161 190.405 378.29 189.824 378.222 189.247C378.153 188.671 377.891 188.13 377.474 187.704Z" fill="#2F2E41"/>
<path d="M459.768 366.887C459.76 368.278 459.743 370.226 459.675 372.635C459.667 372.969 459.658 373.311 459.65 373.661C459.54 378.09 459.43 381.803 459.253 385.929C459.244 386.215 459.236 386.494 459.219 386.78C458.982 392.536 458.61 399.239 457.968 409.854C456.776 429.461 454.697 412.549 452.61 419.427C452.508 419.768 452.398 420.174 452.297 420.651C451.981 422.382 451.447 424.071 450.708 425.684C449.601 426.304 448.46 426.901 447.336 427.497C444.133 429.174 440.879 430.789 437.599 432.323C435.757 433.182 433.906 434.025 432.047 434.836C431.751 434.963 431.463 435.09 431.176 435.209C421.654 439.352 411.841 442.875 401.806 445.752C399.845 446.309 397.893 446.849 395.915 447.35C393.853 447.891 391.791 448.4 389.703 448.877C374.173 452.464 358.282 454.487 342.298 454.912C340.142 454.975 337.97 454.999 335.79 454.999C334.708 454.999 333.643 454.991 332.561 454.983C332.231 454.983 331.902 454.975 331.572 454.967C330.617 454.944 329.628 454.928 328.631 454.904C309.343 454.338 290.213 451.444 271.709 446.293L270.923 446.078C269.706 445.728 268.497 445.386 267.288 445.021C261.71 443.359 256.214 441.499 250.799 439.439C246.666 437.873 242.581 436.193 238.544 434.398C238.507 434.389 238.473 434.373 238.442 434.351C237.597 433.985 236.744 433.603 235.899 433.214C235.789 433.158 235.67 433.102 235.552 433.047C232.399 431.6 229.281 430.084 226.196 428.499C223.601 422.893 219.95 421.82 217.685 416.89C217.026 415.426 216.549 413.894 216.265 412.326C216.265 412.31 216.257 412.295 216.257 412.271C216.493 415.228 215.251 407.023 216.248 412.239C216.24 412.144 216.231 412.04 216.223 411.921C216.198 411.635 216.164 411.285 216.113 410.848C213.214 384.22 213.4 353.768 212.141 328.674C212.056 327.052 211.969 325.499 211.879 324.015C211.853 323.522 211.82 323.037 211.786 322.56C211.845 322.417 211.912 322.266 211.989 322.123C212.005 322.081 212.025 322.042 212.048 322.003C212.073 321.954 212.101 321.906 212.132 321.86C212.149 321.837 212.174 321.805 212.191 321.781C212.204 321.754 212.218 321.727 212.234 321.701C212.31 321.59 212.394 321.471 212.487 321.359C212.529 321.312 212.563 321.272 212.606 321.232C212.635 321.192 212.669 321.154 212.707 321.121C212.733 321.083 212.764 321.048 212.8 321.018C212.834 320.986 212.868 320.946 212.91 320.906C212.928 320.881 212.951 320.86 212.977 320.843C213.044 320.77 213.118 320.704 213.197 320.644C213.499 320.383 213.821 320.144 214.161 319.928C214.279 319.857 214.406 319.785 214.524 319.706C215.376 319.226 216.273 318.822 217.203 318.497C217.524 318.386 217.846 318.282 218.192 318.171C218.319 318.139 218.437 318.1 218.564 318.06C218.75 318.004 218.936 317.949 219.13 317.909C220.094 317.638 221.133 317.408 222.257 317.193C222.393 317.169 222.536 317.145 222.68 317.114C222.883 317.074 223.094 317.042 223.305 317.01C223.593 316.963 223.889 316.915 224.184 316.867C226.695 316.493 229.543 316.215 232.687 316.032C232.983 316.016 233.278 316.001 233.574 315.985C233.921 315.969 234.267 315.953 234.622 315.937C234.918 315.921 235.222 315.913 235.527 315.905C235.822 315.889 236.127 315.881 236.439 315.873C237.293 315.849 238.172 315.826 239.068 315.81C241.62 315.762 244.308 315.778 247.131 315.834C248.441 315.865 249.776 315.897 251.145 315.953C251.238 315.953 251.323 315.961 251.407 315.961C252.599 316.001 253.799 316.048 255.033 316.112C255.895 316.152 256.766 316.191 257.636 316.239C258.456 316.287 259.284 316.334 260.121 316.39C260.772 316.422 261.423 316.47 262.082 316.509C262.64 316.549 263.198 316.589 263.755 316.621L264.516 316.668C264.93 316.7 265.344 316.724 265.767 316.764C266.697 316.835 267.626 316.907 268.573 316.979C269.511 317.058 270.466 317.138 271.421 317.217C272.376 317.297 273.34 317.384 274.303 317.471C274.405 317.479 274.498 317.487 274.591 317.495C275.47 317.583 276.349 317.662 277.236 317.75C277.439 317.766 277.65 317.782 277.853 317.805C278.699 317.885 279.562 317.979 280.415 318.064C280.678 318.091 280.938 318.117 281.201 318.144C281.87 318.212 282.529 318.272 283.203 318.346C284.09 318.441 284.995 318.529 285.874 318.64C286.558 318.712 287.243 318.783 287.927 318.863C289.001 318.982 290.091 319.109 291.181 319.245C291.595 319.292 292.01 319.34 292.424 319.396C295.534 319.761 298.678 320.167 301.873 320.588C306.716 321.232 311.634 321.932 316.587 322.687C321.548 323.443 326.538 324.24 331.555 325.081C332.823 325.295 334.091 325.51 335.367 325.732C335.942 325.836 336.516 325.939 337.091 326.043C338.072 326.21 339.052 326.384 340.032 326.559C341.013 326.734 341.993 326.909 342.974 327.092C344.14 327.307 345.315 327.521 346.481 327.736C354.164 329.167 361.804 330.694 369.258 332.292C370.484 332.554 371.709 332.825 372.927 333.087C375.361 333.62 377.772 334.16 380.161 334.709C380.82 334.852 381.471 335.003 382.122 335.154C383.745 335.536 385.367 335.918 386.965 336.307L387.244 336.379C388.419 336.649 389.568 336.927 390.717 337.214C393.43 337.882 396.098 338.557 398.721 339.241C400.462 339.694 402.184 340.153 403.885 340.617C406.429 341.308 408.922 342.008 411.348 342.716C411.948 342.891 412.548 343.066 413.14 343.233C414.915 343.749 416.664 344.274 418.363 344.799C419.715 345.212 421.034 345.634 422.335 346.055C423.637 346.477 424.913 346.898 426.164 347.319C426.967 347.59 427.761 347.876 428.556 348.146C429.697 348.544 430.821 348.941 431.92 349.339C432.258 349.458 432.587 349.585 432.917 349.705C433.128 349.792 433.331 349.864 433.534 349.943C433.931 350.094 434.337 350.237 434.726 350.388C435.123 350.531 435.512 350.683 435.9 350.842C436.281 350.985 436.67 351.136 437.041 351.287C437.422 351.43 437.794 351.581 438.166 351.74C438.478 351.859 438.782 351.987 439.078 352.114C439.678 352.36 440.278 352.607 440.862 352.861C441.149 352.988 441.436 353.108 441.724 353.235L442.383 353.521C442.476 353.569 442.569 353.609 442.662 353.648C442.873 353.744 443.093 353.847 443.304 353.942C443.794 354.157 444.276 354.388 444.749 354.602C445.383 354.905 446 355.207 446.592 355.501C447.192 355.803 447.775 356.105 448.333 356.399C448.426 356.447 448.51 356.495 448.603 356.542C448.73 356.606 448.857 356.678 448.984 356.741C449.415 356.972 449.829 357.21 450.243 357.441C451.054 357.91 451.824 358.371 452.542 358.832C452.702 358.936 452.855 359.039 453.015 359.134C453.548 359.492 454.055 359.842 454.528 360.2C454.528 360.208 454.528 360.208 454.537 360.208C454.697 360.319 454.849 360.438 455.001 360.55C455.128 360.661 455.263 360.756 455.39 360.868C455.83 361.226 456.235 361.567 456.607 361.917C456.732 362.025 456.85 362.139 456.962 362.259C457.011 362.297 457.057 362.34 457.097 362.386C457.266 362.545 457.419 362.704 457.562 362.863C457.585 362.885 457.604 362.909 457.621 362.935C457.824 363.158 458.01 363.38 458.188 363.603C458.272 363.714 458.365 363.825 458.441 363.937C458.543 364.072 458.644 364.215 458.729 364.35C458.805 364.462 458.872 364.581 458.94 364.692C459.119 364.979 459.272 365.279 459.396 365.591C459.491 365.802 459.568 366.02 459.624 366.243C459.689 366.454 459.737 366.669 459.768 366.887Z" fill="#2F2E41"/>
<path opacity="0.2" d="M459.768 366.887C459.76 368.278 459.743 370.226 459.675 372.635C459.667 372.969 459.65 373.311 459.641 373.661C459.557 377.04 459.43 381.214 459.253 385.929C459.244 386.215 459.236 386.494 459.219 386.78C458.982 392.536 458.61 399.239 457.968 409.854C456.776 429.461 454.697 412.549 452.61 419.427C446.812 416.071 440.456 412.557 433.661 408.947C432.435 408.295 431.199 407.641 429.951 406.983C416.36 399.851 401.181 392.377 385.334 384.975C384.708 384.681 384.074 384.387 383.449 384.1C347.149 367.221 307.527 350.802 275.427 339.845C269.232 337.73 263.316 335.822 257.755 334.145C246.041 330.622 235.915 328.158 228.123 327.092C220.009 325.979 214.406 326.376 212.141 328.674C212.056 327.052 211.969 325.499 211.879 324.015C211.845 323.522 211.811 323.037 211.777 322.56C211.829 322.429 211.897 322.304 211.963 322.178C211.972 322.16 211.979 322.141 211.989 322.123C212.005 322.082 212.025 322.042 212.048 322.003C212.073 321.954 212.101 321.906 212.132 321.86C212.16 321.804 212.194 321.751 212.234 321.701C212.31 321.59 212.394 321.471 212.487 321.359C212.556 321.276 212.629 321.196 212.707 321.121C212.733 321.083 212.764 321.048 212.8 321.017C212.834 320.986 212.867 320.946 212.91 320.906C212.928 320.881 212.951 320.86 212.977 320.843C213.044 320.77 213.118 320.704 213.197 320.644C213.499 320.383 213.821 320.144 214.161 319.928C214.279 319.857 214.406 319.785 214.524 319.706C215.376 319.226 216.273 318.822 217.203 318.497C217.524 318.386 217.846 318.282 218.192 318.171C218.319 318.139 218.437 318.1 218.564 318.06C218.75 318.004 218.936 317.948 219.13 317.909C220.094 317.638 221.133 317.408 222.257 317.193C222.595 317.13 222.95 317.066 223.305 317.01C223.593 316.963 223.889 316.915 224.184 316.867C226.695 316.493 229.543 316.215 232.687 316.032C232.983 316.016 233.278 316 233.574 315.985C233.921 315.969 234.267 315.953 234.622 315.937C234.918 315.921 235.222 315.913 235.527 315.905C235.822 315.889 236.127 315.881 236.439 315.873C237.293 315.849 238.172 315.826 239.068 315.81C241.62 315.77 244.308 315.786 247.131 315.841C248.441 315.865 249.776 315.905 251.145 315.961C251.23 315.961 251.323 315.969 251.407 315.969C252.599 316 253.808 316.056 255.033 316.112C255.895 316.152 256.766 316.191 257.636 316.239C258.456 316.287 259.284 316.334 260.121 316.39C260.772 316.422 261.423 316.47 262.082 316.509C262.64 316.549 263.198 316.589 263.755 316.621C264.423 316.668 265.091 316.716 265.767 316.764C266.697 316.835 267.626 316.907 268.573 316.978C269.511 317.058 270.466 317.137 271.421 317.217C272.376 317.296 273.34 317.384 274.303 317.471C274.405 317.479 274.498 317.487 274.591 317.495C275.47 317.583 276.349 317.662 277.236 317.75C282.155 318.219 287.217 318.767 292.424 319.396C295.534 319.769 298.684 320.169 301.873 320.596C306.716 321.24 311.635 321.94 316.587 322.687C321.548 323.443 326.538 324.24 331.555 325.08C332.823 325.295 334.091 325.51 335.367 325.732C336.922 326.003 338.477 326.278 340.032 326.559C341.013 326.734 341.993 326.909 342.974 327.092C344.14 327.307 345.315 327.521 346.481 327.736C354.164 329.167 361.804 330.694 369.259 332.292C370.484 332.554 371.71 332.825 372.927 333.087C375.361 333.62 377.772 334.16 380.161 334.709C380.82 334.86 381.471 335.011 382.122 335.162C383.753 335.544 385.368 335.926 386.965 336.307V336.315C387.058 336.331 387.151 336.355 387.244 336.379C388.41 336.657 389.568 336.935 390.717 337.222C393.43 337.889 396.098 338.563 398.721 339.241C400.462 339.702 402.187 340.156 403.885 340.617C406.429 341.316 408.923 342.016 411.348 342.716C411.948 342.891 412.548 343.066 413.14 343.233C414.915 343.757 416.656 344.279 418.363 344.799C419.715 345.212 421.034 345.634 422.335 346.055C423.637 346.476 424.913 346.898 426.164 347.319C426.975 347.59 427.77 347.868 428.556 348.138C429.705 348.536 430.821 348.933 431.92 349.339C432.258 349.458 432.587 349.585 432.917 349.705C433.534 349.927 434.134 350.158 434.726 350.388C435.123 350.532 435.512 350.683 435.901 350.842C436.281 350.985 436.67 351.136 437.041 351.287C437.422 351.43 437.794 351.581 438.166 351.74C438.478 351.859 438.783 351.987 439.078 352.114C439.678 352.36 440.279 352.607 440.862 352.861C441.149 352.988 441.436 353.108 441.724 353.235L442.383 353.521C442.476 353.569 442.569 353.609 442.662 353.648C443.38 353.966 444.073 354.284 444.749 354.602C445.383 354.905 446 355.207 446.592 355.501C447.293 355.851 447.961 356.193 448.603 356.542C448.73 356.606 448.857 356.678 448.984 356.741C449.415 356.972 449.829 357.21 450.243 357.441C451.054 357.91 451.824 358.371 452.542 358.832C453.252 359.293 453.911 359.747 454.528 360.2C454.528 360.208 454.528 360.208 454.537 360.208C454.832 360.43 455.12 360.653 455.39 360.868C455.83 361.225 456.235 361.567 456.607 361.917C456.732 362.025 456.85 362.139 456.962 362.259C457.011 362.297 457.057 362.34 457.098 362.386C457.275 362.569 457.452 362.752 457.622 362.935C457.824 363.158 458.01 363.38 458.188 363.603C458.272 363.714 458.365 363.825 458.441 363.937C458.543 364.072 458.644 364.215 458.729 364.35C458.805 364.462 458.872 364.581 458.94 364.692C459.119 364.979 459.272 365.279 459.396 365.591C459.489 365.803 459.565 366.02 459.625 366.243C459.689 366.454 459.737 366.669 459.768 366.887Z" fill="black"/>
</g>
<defs>
<clipPath id="clip0_14_2">
<rect width="665" height="455" fill="white"/>
</clipPath>
</defs>
</svg>
